<svg width="1200" height="675" viewBox="0 0 1200 675" fill="none" xmlns="http://www.w3.org/2000/svg">
  <rect width="1200" height="675" fill="#FAFAFA"/>
  <rect x="64" y="64" width="1072" height="547" rx="28" fill="#FFFFFF" stroke="#E4E4E7"/>
  <text x="108" y="148" fill="#047857" font-family="Arial, sans-serif" font-size="30" font-weight="700">Git</text>
  <text x="108" y="222" fill="#18181B" font-family="Arial, sans-serif" font-size="62" font-weight="700">Squash Merge</text>
  <text x="108" y="284" fill="#18181B" font-family="Arial, sans-serif" font-size="62" font-weight="700">Rebase Conflict</text>
  <path d="M150 430H450" stroke="#18181B" stroke-width="16" stroke-linecap="round"/>
  <path d="M450 430C560 430 560 336 670 336H860" stroke="#18181B" stroke-width="16" stroke-linecap="round"/>
  <path d="M450 430C560 430 560 524 670 524H930" stroke="#34D399" stroke-width="16" stroke-linecap="round"/>
  <circle cx="150" cy="430" r="26" fill="#18181B"/>
  <circle cx="450" cy="430" r="26" fill="#18181B"/>
  <circle cx="670" cy="336" r="26" fill="#18181B"/>
  <circle cx="860" cy="336" r="26" fill="#18181B"/>
  <circle cx="670" cy="524" r="26" fill="#34D399"/>
  <circle cx="930" cy="524" r="26" fill="#34D399"/>
  <rect x="746" y="398" width="250" height="74" rx="16" fill="#FEF2F2" stroke="#FECACA"/>
  <text x="780" y="446" fill="#991B1B" font-family="Arial, sans-serif" font-size="28" font-weight="700">conflict</text>
</svg>
