<svg xmlns="http://www.w3.org/2000/svg" width="1200" height="675" viewBox="0 0 1200 675" role="img" aria-labelledby="title desc">
  <title id="title">Ubuntu MT5 Server series thumbnail</title>
  <desc id="desc">Ubuntu server architecture for MetaTrader 5 with Wine, display layer, Python API, and systemd.</desc>
  <defs>
    <linearGradient id="bg" x1="0" y1="0" x2="1" y2="1">
      <stop offset="0" stop-color="#160F24"/>
      <stop offset="0.55" stop-color="#101827"/>
      <stop offset="1" stop-color="#10231F"/>
    </linearGradient>
    <linearGradient id="beam" x1="0" y1="0" x2="1" y2="0">
      <stop offset="0" stop-color="#F97316" stop-opacity="0"/>
      <stop offset="0.46" stop-color="#F97316" stop-opacity="0.34"/>
      <stop offset="1" stop-color="#34D399" stop-opacity="0"/>
    </linearGradient>
    <pattern id="grid" width="54" height="54" patternUnits="userSpaceOnUse">
      <path d="M54 0H0V54" fill="none" stroke="#FFFFFF" stroke-opacity="0.07" stroke-width="1"/>
    </pattern>
    <filter id="shadow" x="-20%" y="-20%" width="140%" height="140%">
      <feDropShadow dx="0" dy="18" stdDeviation="18" flood-color="#000000" flood-opacity="0.34"/>
    </filter>
  </defs>
  <rect width="1200" height="675" fill="url(#bg)"/>
  <rect width="1200" height="675" fill="url(#grid)" opacity="0.75"/>
  <path d="M-90 564C136 438 284 530 506 402C724 276 838 112 1288 154V742H-90Z" fill="#34D399" opacity="0.12"/>
  <path d="M748 -90L1276 146V675H984L600 94Z" fill="#F97316" opacity="0.15"/>
  <rect x="-120" y="236" width="1440" height="92" transform="rotate(-10 600 282)" fill="url(#beam)"/>
  <rect x="28" y="28" width="1144" height="619" rx="34" fill="none" stroke="#FFFFFF" stroke-opacity="0.10"/>
  <g font-family="Inter, ui-sans-serif, system-ui, -apple-system, BlinkMacSystemFont, Arial, sans-serif">
    <rect x="72" y="72" width="268" height="42" rx="21" fill="#FFFFFF" fill-opacity="0.11" stroke="#FFFFFF" stroke-opacity="0.16"/>
    <circle cx="94" cy="93" r="6" fill="#F97316"/>
    <text x="112" y="99" fill="#F8FAFC" font-size="22" font-weight="780">Ubuntu + MT5</text>
    <text x="72" y="186" fill="#FFFFFF" font-size="66" font-weight="870">MT5 SERVER</text>
    <text x="72" y="262" fill="#FFFFFF" font-size="66" font-weight="870">ON LINUX</text>
    <path d="M74 356H334" stroke="#F97316" stroke-width="9" stroke-linecap="round"/>
    <path d="M356 356H462" stroke="#34D399" stroke-width="9" stroke-linecap="round" opacity="0.78"/>
    <text x="72" y="416" fill="#CBD5E1" font-size="28" font-weight="650">Wine, display layer, Python API, systemd</text>
  </g>
  <g filter="url(#shadow)" font-family="Inter, ui-sans-serif, system-ui, -apple-system, BlinkMacSystemFont, Arial, sans-serif">
    <rect x="530" y="150" width="590" height="370" rx="28" fill="#07111F" fill-opacity="0.84" stroke="#FFFFFF" stroke-opacity="0.13"/>
    <rect x="574" y="206" width="156" height="72" rx="18" fill="#F97316"/>
    <rect x="788" y="206" width="126" height="72" rx="18" fill="#E2E8F0"/>
    <rect x="972" y="206" width="104" height="72" rx="18" fill="#34D399"/>
    <text x="652" y="250" fill="#111827" font-size="21" font-weight="850" text-anchor="middle">Ubuntu</text>
    <text x="851" y="250" fill="#111827" font-size="21" font-weight="850" text-anchor="middle">Wine</text>
    <text x="1024" y="250" fill="#06111F" font-size="21" font-weight="850" text-anchor="middle">MT5</text>
    <path d="M730 242H788M914 242H972" stroke="#F8FAFC" stroke-width="8" stroke-linecap="round"/>
    <path d="M652 278C652 338 626 344 626 388M851 278C851 336 850 344 850 388M1024 278C1024 336 1048 344 1048 388" fill="none" stroke="#F97316" stroke-width="4" stroke-linecap="round" opacity="0.9"/>
    <rect x="562" y="388" width="128" height="50" rx="15" fill="#FFFFFF" fill-opacity="0.12" stroke="#FFFFFF" stroke-opacity="0.13"/>
    <rect x="786" y="388" width="128" height="50" rx="15" fill="#FFFFFF" fill-opacity="0.12" stroke="#FFFFFF" stroke-opacity="0.13"/>
    <rect x="980" y="388" width="136" height="50" rx="15" fill="#FFFFFF" fill-opacity="0.12" stroke="#FFFFFF" stroke-opacity="0.13"/>
    <text x="626" y="420" fill="#E2E8F0" font-size="16" font-weight="760" text-anchor="middle">DISPLAY</text>
    <text x="850" y="420" fill="#E2E8F0" font-size="16" font-weight="760" text-anchor="middle">Python</text>
    <text x="1048" y="420" fill="#E2E8F0" font-size="16" font-weight="760" text-anchor="middle">systemd</text>
    <path d="M574 470H1000" stroke="#FFFFFF" stroke-opacity="0.14" stroke-width="2"/>
    <path d="M574 470H884" stroke="#34D399" stroke-width="8" stroke-linecap="round"/>
  </g>
</svg>
