<svg xmlns="http://www.w3.org/2000/svg" width="1200" height="675" viewBox="0 0 1200 675" role="img" aria-labelledby="title desc">
  <title id="title">MySQL UPSERT thumbnail</title>
  <desc id="desc">MySQL upsert cover showing insert or update decision by unique key.</desc>
  <defs>
    <linearGradient id="bg" x1="0" x2="1" y1="0" y2="1">
      <stop offset="0" stop-color="#171008"/>
      <stop offset="1" stop-color="#261A0C"/>
    </linearGradient>
    <linearGradient id="shine" x1="0" x2="1" y1="0" y2="0">
      <stop offset="0" stop-color="#FBBF24" stop-opacity="0"/>
      <stop offset="0.5" stop-color="#FBBF24" stop-opacity="0.32"/>
      <stop offset="1" stop-color="#34D399" stop-opacity="0"/>
    </linearGradient>
    <pattern id="grid" width="56" height="56" patternUnits="userSpaceOnUse">
      <path d="M56 0H0V56" fill="none" stroke="#FFFFFF" stroke-opacity="0.07" stroke-width="1"/>
    </pattern>
    <filter id="softShadow" x="-20%" y="-20%" width="140%" height="140%">
      <feDropShadow dx="0" dy="18" stdDeviation="18" flood-color="#000000" flood-opacity="0.32"/>
    </filter>
  </defs>
  <rect width="1200" height="675" fill="url(#bg)"/>
  <rect width="1200" height="675" fill="url(#grid)" opacity="0.7"/>
  <path d="M-60 580C170 456 293 528 514 406C726 289 857 114 1264 156V735H-60Z" fill="#FBBF24" opacity="0.13"/>
  <path d="M741 -80L1268 151V675H974L597 96Z" fill="#34D399" opacity="0.14"/>
  <rect x="-120" y="210" width="1440" height="86" transform="rotate(-10 600 253)" fill="url(#shine)" opacity="0.8"/>
  <rect x="28" y="28" width="1144" height="619" rx="34" fill="none" stroke="#FFFFFF" stroke-opacity="0.09"/>
  <g font-family="Inter, ui-sans-serif, system-ui, -apple-system, BlinkMacSystemFont, Arial, sans-serif">
    <rect x="72" y="72" width="240" height="42" rx="21" fill="#FFFFFF" fill-opacity="0.10" stroke="#FFFFFF" stroke-opacity="0.16"/>
    <circle cx="94" cy="93" r="6" fill="#FBBF24"/>
    <text x="112" y="99" fill="#DDE6F3" font-family="Inter, ui-sans-serif, system-ui, -apple-system, BlinkMacSystemFont, Arial, sans-serif" font-size="22" font-weight="750" text-anchor="start">MySQL</text>
    <text x="72" y="188" fill="#FFFFFF" font-family="Inter, ui-sans-serif, system-ui, -apple-system, BlinkMacSystemFont, Arial, sans-serif" font-size="68" font-weight="850" text-anchor="start">UPSERT</text>
    <path d="M74 358H334" stroke="#FBBF24" stroke-width="9" stroke-linecap="round"/>
    <path d="M356 358H430" stroke="#34D399" stroke-width="9" stroke-linecap="round" opacity="0.72"/>
    <text x="72" y="416" fill="#CBD5E1" font-family="Inter, ui-sans-serif, system-ui, -apple-system, BlinkMacSystemFont, Arial, sans-serif" font-size="28" font-weight="650" text-anchor="start">ON DUPLICATE KEY UPDATE</text>
  </g>
  <g font-family="Inter, ui-sans-serif, system-ui, -apple-system, BlinkMacSystemFont, Arial, sans-serif" filter="url(#softShadow)">
    <rect x="524" y="156" width="606" height="380" rx="30" fill="#0F1117" fill-opacity="0.86" stroke="#FFFFFF" stroke-opacity="0.12"/>
    <circle cx="830" cy="320" r="74" fill="#FBBF24" fill-opacity="0.14"/>
    <rect x="704" y="236" width="252" height="72" rx="20" fill="#FBBF24" fill-opacity="0.92"/>
    <text x="830" y="282" fill="#111827" font-family="Inter, ui-sans-serif, system-ui, -apple-system, BlinkMacSystemFont, Arial, sans-serif" font-size="26" font-weight="850" text-anchor="middle">UNIQUE KEY</text>
    <path d="M830 308V376" stroke="#E2E8F0" stroke-width="7" stroke-linecap="round"/>
    <path d="M830 376C768 376 740 418 690 448" fill="none" stroke="#34D399" stroke-width="8" stroke-linecap="round"/>
    <path d="M830 376C892 376 920 418 974 448" fill="none" stroke="#FB7185" stroke-width="8" stroke-linecap="round"/>
    <rect x="594" y="442" width="178" height="58" rx="16" fill="#34D399" fill-opacity="0.20" stroke="#34D399" stroke-opacity="0.65"/>
    <text x="683" y="478" fill="#D1FAE5" font-family="Inter, ui-sans-serif, system-ui, -apple-system, BlinkMacSystemFont, Arial, sans-serif" font-size="22" font-weight="850" text-anchor="middle">INSERT</text>
    <rect x="896" y="442" width="178" height="58" rx="16" fill="#FB7185" fill-opacity="0.20" stroke="#FB7185" stroke-opacity="0.65"/>
    <text x="985" y="478" fill="#FECACA" font-family="Inter, ui-sans-serif, system-ui, -apple-system, BlinkMacSystemFont, Arial, sans-serif" font-size="22" font-weight="850" text-anchor="middle">UPDATE</text>
  </g>
</svg>
