<svg xmlns="http://www.w3.org/2000/svg" width="1200" height="675" viewBox="0 0 1200 675" role="img" aria-labelledby="title desc">
  <title id="title">SQL view derived table CTE temporary table thumbnail</title>
  <desc id="desc">SQL internals cover showing optimizer merge and materialize behavior.</desc>
  <defs>
    <linearGradient id="bg" x1="0" x2="1" y1="0" y2="1">
      <stop offset="0" stop-color="#0A1020"/>
      <stop offset="1" stop-color="#111827"/>
    </linearGradient>
    <linearGradient id="shine" x1="0" x2="1" y1="0" y2="0">
      <stop offset="0" stop-color="#2DD4BF" stop-opacity="0"/>
      <stop offset="0.5" stop-color="#2DD4BF" stop-opacity="0.32"/>
      <stop offset="1" stop-color="#A78BFA" stop-opacity="0"/>
    </linearGradient>
    <pattern id="grid" width="56" height="56" patternUnits="userSpaceOnUse">
      <path d="M56 0H0V56" fill="none" stroke="#FFFFFF" stroke-opacity="0.07" stroke-width="1"/>
    </pattern>
    <filter id="softShadow" x="-20%" y="-20%" width="140%" height="140%">
      <feDropShadow dx="0" dy="18" stdDeviation="18" flood-color="#000000" flood-opacity="0.32"/>
    </filter>
  </defs>
  <rect width="1200" height="675" fill="url(#bg)"/>
  <rect width="1200" height="675" fill="url(#grid)" opacity="0.7"/>
  <path d="M-60 580C170 456 293 528 514 406C726 289 857 114 1264 156V735H-60Z" fill="#2DD4BF" opacity="0.13"/>
  <path d="M741 -80L1268 151V675H974L597 96Z" fill="#A78BFA" opacity="0.14"/>
  <rect x="-120" y="210" width="1440" height="86" transform="rotate(-10 600 253)" fill="url(#shine)" opacity="0.8"/>
  <rect x="28" y="28" width="1144" height="619" rx="34" fill="none" stroke="#FFFFFF" stroke-opacity="0.09"/>
  <g font-family="Inter, ui-sans-serif, system-ui, -apple-system, BlinkMacSystemFont, Arial, sans-serif">
    <rect x="72" y="72" width="240" height="42" rx="21" fill="#FFFFFF" fill-opacity="0.10" stroke="#FFFFFF" stroke-opacity="0.16"/>
    <circle cx="94" cy="93" r="6" fill="#2DD4BF"/>
    <text x="112" y="99" fill="#DDE6F3" font-family="Inter, ui-sans-serif, system-ui, -apple-system, BlinkMacSystemFont, Arial, sans-serif" font-size="22" font-weight="750" text-anchor="start">SQL Internal</text>
    <text x="72" y="188" fill="#FFFFFF" font-family="Inter, ui-sans-serif, system-ui, -apple-system, BlinkMacSystemFont, Arial, sans-serif" font-size="68" font-weight="850" text-anchor="start">VIEW / CTE</text>
  <text x="72" y="264" fill="#FFFFFF" font-family="Inter, ui-sans-serif, system-ui, -apple-system, BlinkMacSystemFont, Arial, sans-serif" font-size="68" font-weight="850" text-anchor="start">TEMP TABLE</text>
    <path d="M74 358H334" stroke="#2DD4BF" stroke-width="9" stroke-linecap="round"/>
    <path d="M356 358H430" stroke="#A78BFA" stroke-width="9" stroke-linecap="round" opacity="0.72"/>
    <text x="72" y="416" fill="#CBD5E1" font-family="Inter, ui-sans-serif, system-ui, -apple-system, BlinkMacSystemFont, Arial, sans-serif" font-size="28" font-weight="650" text-anchor="start">Merge or materialize</text>
  </g>
  <g font-family="Inter, ui-sans-serif, system-ui, -apple-system, BlinkMacSystemFont, Arial, sans-serif" filter="url(#softShadow)">
    <rect x="524" y="150" width="612" height="386" rx="30" fill="#07111C" fill-opacity="0.84" stroke="#FFFFFF" stroke-opacity="0.12"/>
    <circle cx="830" cy="318" r="76" fill="#2DD4BF" opacity="0.16"/>
    <circle cx="830" cy="318" r="52" fill="#FFFFFF" fill-opacity="0.92"/>
    <text x="830" y="310" fill="#111827" font-family="Inter, ui-sans-serif, system-ui, -apple-system, BlinkMacSystemFont, Arial, sans-serif" font-size="20" font-weight="850" text-anchor="middle">Optimizer</text>
    <text x="830" y="338" fill="#475569" font-family="Inter, ui-sans-serif, system-ui, -apple-system, BlinkMacSystemFont, Arial, sans-serif" font-size="16" font-weight="750" text-anchor="middle">decides</text>
    <rect x="610" y="206" width="142" height="64" rx="18" fill="#A78BFA" opacity="0.96"/>
    <text x="681" y="246" fill="#06111F" font-family="Inter, ui-sans-serif, system-ui, -apple-system, BlinkMacSystemFont, Arial, sans-serif" font-size="19" font-weight="850" text-anchor="middle">View</text>
    <rect x="1000" y="206" width="142" height="64" rx="18" fill="#F59E0B" opacity="0.96"/>
    <text x="1071" y="246" fill="#06111F" font-family="Inter, ui-sans-serif, system-ui, -apple-system, BlinkMacSystemFont, Arial, sans-serif" font-size="19" font-weight="850" text-anchor="middle">CTE</text>
    <rect x="610" y="432" width="142" height="64" rx="18" fill="#E2E8F0" opacity="0.96"/>
    <text x="681" y="472" fill="#0F172A" font-family="Inter, ui-sans-serif, system-ui, -apple-system, BlinkMacSystemFont, Arial, sans-serif" font-size="19" font-weight="850" text-anchor="middle">Derived</text>
    <rect x="1000" y="432" width="142" height="64" rx="18" fill="#2DD4BF" opacity="0.96"/>
    <text x="1071" y="472" fill="#06111F" font-family="Inter, ui-sans-serif, system-ui, -apple-system, BlinkMacSystemFont, Arial, sans-serif" font-size="19" font-weight="850" text-anchor="middle">Temp</text>
    <path d="M728 238C764 256 786 276 810 296M958 238C919 257 883 278 850 298M728 464C765 428 791 391 812 344M958 464C914 424 883 387 850 344" fill="none" stroke="#CBD5E1" stroke-width="5" stroke-linecap="round" opacity="0.8"/>
    <rect x="682" y="548" width="298" height="46" rx="14" fill="#FFFFFF" fill-opacity="0.12"/>
    <text x="831" y="577" fill="#E2E8F0" font-family="Inter, ui-sans-serif, system-ui, -apple-system, BlinkMacSystemFont, Arial, sans-serif" font-size="18" font-weight="750" text-anchor="middle">merge / materialize / storage</text>
  </g>
</svg>
