<svg xmlns="http://www.w3.org/2000/svg" viewBox="0 0 1200 675" role="img" aria-labelledby="title desc">
  <title id="title">SQL view derived table CTE temporary table thumbnail</title>
  <desc id="desc">A query processing flow comparing view, derived table, CTE, and temporary table.</desc>
  <rect width="1200" height="675" fill="#FAFAFA"/>
  <rect x="84" y="74" width="1032" height="527" rx="28" fill="#FFFFFF" stroke="#E4E4E7" stroke-width="2"/>
  <text x="132" y="144" fill="#047857" font-family="Inter, Arial, sans-serif" font-size="28" font-weight="700">SQL Internal</text>
  <text x="132" y="207" fill="#18181B" font-family="Inter, Arial, sans-serif" font-size="56" font-weight="800">View / Derived / CTE</text>
  <text x="132" y="268" fill="#18181B" font-family="Inter, Arial, sans-serif" font-size="56" font-weight="800">Temporary Table</text>
  <g font-family="Inter, Arial, sans-serif" font-size="24" font-weight="700">
    <rect x="132" y="350" width="176" height="82" rx="18" fill="#ECFDF5" stroke="#A7F3D0"/>
    <text x="166" y="402" fill="#047857">Parser</text>
    <rect x="348" y="350" width="176" height="82" rx="18" fill="#F4F4F5" stroke="#D4D4D8"/>
    <text x="384" y="402" fill="#18181B">Optimizer</text>
    <rect x="564" y="350" width="176" height="82" rx="18" fill="#EFF6FF" stroke="#BFDBFE"/>
    <text x="609" y="402" fill="#1D4ED8">Plan</text>
    <rect x="780" y="350" width="176" height="82" rx="18" fill="#FDF2F8" stroke="#FBCFE8"/>
    <text x="806" y="402" fill="#BE185D">Storage</text>
  </g>
  <g fill="none" stroke="#18181B" stroke-width="9" stroke-linecap="round" stroke-linejoin="round">
    <path d="M308 391H348"/>
    <path d="M524 391H564"/>
    <path d="M740 391H780"/>
  </g>
  <g font-family="Inter, Arial, sans-serif" font-size="22" font-weight="700">
    <rect x="164" y="492" width="170" height="58" rx="16" fill="#F4F4F5"/>
    <text x="197" y="529" fill="#18181B">Derived</text>
    <rect x="356" y="492" width="126" height="58" rx="16" fill="#F4F4F5"/>
    <text x="397" y="529" fill="#18181B">CTE</text>
    <rect x="504" y="492" width="126" height="58" rx="16" fill="#F4F4F5"/>
    <text x="542" y="529" fill="#18181B">View</text>
    <rect x="652" y="492" width="218" height="58" rx="16" fill="#ECFDF5"/>
    <text x="684" y="529" fill="#047857">Temp Table</text>
  </g>
  <path d="M246 492C246 455 436 458 436 432" fill="none" stroke="#A1A1AA" stroke-width="4" stroke-linecap="round"/>
  <path d="M419 492C419 454 436 457 436 432" fill="none" stroke="#A1A1AA" stroke-width="4" stroke-linecap="round"/>
  <path d="M567 492C567 457 436 457 436 432" fill="none" stroke="#A1A1AA" stroke-width="4" stroke-linecap="round"/>
  <path d="M761 492C761 456 868 456 868 432" fill="none" stroke="#34D399" stroke-width="5" stroke-linecap="round"/>
</svg>
