<svg xmlns="http://www.w3.org/2000/svg" width="1200" height="675" viewBox="0 0 1200 675" role="img" aria-labelledby="title desc">
  <title id="title">SQL EXPLAIN and EXPLAIN ANALYZE thumbnail</title>
  <desc id="desc">Execution plan cover showing estimated and actual SQL performance metrics.</desc>
  <defs>
    <linearGradient id="bg" x1="0" x2="1" y1="0" y2="1">
      <stop offset="0" stop-color="#08111F"/>
      <stop offset="1" stop-color="#0F172A"/>
    </linearGradient>
    <linearGradient id="shine" x1="0" x2="1" y1="0" y2="0">
      <stop offset="0" stop-color="#34D399" stop-opacity="0"/>
      <stop offset="0.5" stop-color="#34D399" stop-opacity="0.32"/>
      <stop offset="1" stop-color="#60A5FA" stop-opacity="0"/>
    </linearGradient>
    <pattern id="grid" width="56" height="56" patternUnits="userSpaceOnUse">
      <path d="M56 0H0V56" fill="none" stroke="#FFFFFF" stroke-opacity="0.07" stroke-width="1"/>
    </pattern>
    <filter id="softShadow" x="-20%" y="-20%" width="140%" height="140%">
      <feDropShadow dx="0" dy="18" stdDeviation="18" flood-color="#000000" flood-opacity="0.32"/>
    </filter>
  </defs>
  <rect width="1200" height="675" fill="url(#bg)"/>
  <rect width="1200" height="675" fill="url(#grid)" opacity="0.7"/>
  <path d="M-60 580C170 456 293 528 514 406C726 289 857 114 1264 156V735H-60Z" fill="#34D399" opacity="0.13"/>
  <path d="M741 -80L1268 151V675H974L597 96Z" fill="#60A5FA" opacity="0.14"/>
  <rect x="-120" y="210" width="1440" height="86" transform="rotate(-10 600 253)" fill="url(#shine)" opacity="0.8"/>
  <rect x="28" y="28" width="1144" height="619" rx="34" fill="none" stroke="#FFFFFF" stroke-opacity="0.09"/>
  <g font-family="Inter, ui-sans-serif, system-ui, -apple-system, BlinkMacSystemFont, Arial, sans-serif">
    <rect x="72" y="72" width="240" height="42" rx="21" fill="#FFFFFF" fill-opacity="0.10" stroke="#FFFFFF" stroke-opacity="0.16"/>
    <circle cx="94" cy="93" r="6" fill="#34D399"/>
    <text x="112" y="99" fill="#DDE6F3" font-family="Inter, ui-sans-serif, system-ui, -apple-system, BlinkMacSystemFont, Arial, sans-serif" font-size="22" font-weight="750" text-anchor="start">SQL Performance</text>
    <text x="72" y="188" fill="#FFFFFF" font-family="Inter, ui-sans-serif, system-ui, -apple-system, BlinkMacSystemFont, Arial, sans-serif" font-size="68" font-weight="850" text-anchor="start">EXPLAIN</text>
  <text x="72" y="264" fill="#FFFFFF" font-family="Inter, ui-sans-serif, system-ui, -apple-system, BlinkMacSystemFont, Arial, sans-serif" font-size="68" font-weight="850" text-anchor="start">ANALYZE</text>
    <path d="M74 358H334" stroke="#34D399" stroke-width="9" stroke-linecap="round"/>
    <path d="M356 358H430" stroke="#60A5FA" stroke-width="9" stroke-linecap="round" opacity="0.72"/>
    <text x="72" y="416" fill="#CBD5E1" font-family="Inter, ui-sans-serif, system-ui, -apple-system, BlinkMacSystemFont, Arial, sans-serif" font-size="28" font-weight="650" text-anchor="start">Plan vs actual runtime</text>
  </g>
  <g font-family="Inter, ui-sans-serif, system-ui, -apple-system, BlinkMacSystemFont, Arial, sans-serif" filter="url(#softShadow)">
    <rect x="518" y="166" width="602" height="346" rx="28" fill="#08111F" fill-opacity="0.82" stroke="#FFFFFF" stroke-opacity="0.12"/>
    <text x="558" y="207" fill="#34D399" font-family="Inter, ui-sans-serif, system-ui, -apple-system, BlinkMacSystemFont, Arial, sans-serif" font-size="22" font-weight="800" text-anchor="start">execution plan</text>
    <rect x="560" y="228" width="116" height="64" rx="16" fill="#34D399" opacity="0.98"/>
    <text x="618" y="267" fill="#06111F" font-family="Inter, ui-sans-serif, system-ui, -apple-system, BlinkMacSystemFont, Arial, sans-serif" font-size="17" font-weight="850" text-anchor="middle">Parser</text>
    <rect x="704" y="228" width="116" height="64" rx="16" fill="#F8FAFC" opacity="0.94"/>
    <text x="762" y="267" fill="#111827" font-family="Inter, ui-sans-serif, system-ui, -apple-system, BlinkMacSystemFont, Arial, sans-serif" font-size="17" font-weight="850" text-anchor="middle">Optimizer</text>
    <rect x="848" y="228" width="116" height="64" rx="16" fill="#60A5FA" opacity="0.98"/>
    <text x="906" y="267" fill="#06111F" font-family="Inter, ui-sans-serif, system-ui, -apple-system, BlinkMacSystemFont, Arial, sans-serif" font-size="17" font-weight="850" text-anchor="middle">Plan</text>
    <rect x="992" y="228" width="116" height="64" rx="16" fill="#F472B6" opacity="0.98"/>
    <text x="1050" y="267" fill="#06111F" font-family="Inter, ui-sans-serif, system-ui, -apple-system, BlinkMacSystemFont, Arial, sans-serif" font-size="17" font-weight="850" text-anchor="middle">Actual</text>
    <path d="M676 260H704M820 260H848M964 260H992" stroke="#E2E8F0" stroke-width="8" stroke-linecap="round"/>
    <path d="M616 292C616 352 604 354 604 400M760 292C760 348 741 354 741 400M904 292C904 348 878 354 878 400M1048 292C1048 351 1015 354 1015 400" fill="none" stroke="#34D399" stroke-width="4" stroke-linecap="round" opacity="0.92"/>
    <rect x="546" y="400" width="118" height="42" rx="12" fill="#FFFFFF" fill-opacity="0.12" stroke="#FFFFFF" stroke-opacity="0.12"/>
    <text x="605" y="427" fill="#E2E8F0" font-family="Inter, ui-sans-serif, system-ui, -apple-system, BlinkMacSystemFont, Arial, sans-serif" font-size="15" font-weight="750" text-anchor="middle">rows</text>
    <rect x="682" y="400" width="118" height="42" rx="12" fill="#FFFFFF" fill-opacity="0.12" stroke="#FFFFFF" stroke-opacity="0.12"/>
    <text x="741" y="427" fill="#E2E8F0" font-family="Inter, ui-sans-serif, system-ui, -apple-system, BlinkMacSystemFont, Arial, sans-serif" font-size="15" font-weight="750" text-anchor="middle">index</text>
    <rect x="818" y="400" width="118" height="42" rx="12" fill="#FFFFFF" fill-opacity="0.12" stroke="#FFFFFF" stroke-opacity="0.12"/>
    <text x="877" y="427" fill="#E2E8F0" font-family="Inter, ui-sans-serif, system-ui, -apple-system, BlinkMacSystemFont, Arial, sans-serif" font-size="15" font-weight="750" text-anchor="middle">sort</text>
    <rect x="954" y="400" width="118" height="42" rx="12" fill="#FFFFFF" fill-opacity="0.12" stroke="#FFFFFF" stroke-opacity="0.12"/>
    <text x="1013" y="427" fill="#E2E8F0" font-family="Inter, ui-sans-serif, system-ui, -apple-system, BlinkMacSystemFont, Arial, sans-serif" font-size="15" font-weight="750" text-anchor="middle">actual ms</text>
    <path d="M562 474H1045" stroke="#FFFFFF" stroke-opacity="0.14" stroke-width="2"/>
    <path d="M562 474H905" stroke="#34D399" stroke-width="8" stroke-linecap="round"/>
  </g>
</svg>
