<svg xmlns="http://www.w3.org/2000/svg" width="960" height="1280" viewBox="0 0 960 1280" role="img" aria-labelledby="title desc">
  <title id="title">Database Internal book cover</title>
  <desc id="desc">A technical book cover showing the database execution pipeline from SQL to storage engine.</desc>
  <defs>
    <linearGradient id="bg" x1="0" y1="0" x2="1" y2="1">
      <stop offset="0" stop-color="#06111F"/>
      <stop offset="0.52" stop-color="#0F172A"/>
      <stop offset="1" stop-color="#10231F"/>
    </linearGradient>
    <linearGradient id="aqua" x1="0" y1="0" x2="1" y2="0">
      <stop offset="0" stop-color="#2DD4BF"/>
      <stop offset="1" stop-color="#60A5FA"/>
    </linearGradient>
    <linearGradient id="heat" x1="0" y1="0" x2="1" y2="1">
      <stop offset="0" stop-color="#34D399"/>
      <stop offset="0.58" stop-color="#60A5FA"/>
      <stop offset="1" stop-color="#A78BFA"/>
    </linearGradient>
    <pattern id="grid" width="48" height="48" patternUnits="userSpaceOnUse">
      <path d="M48 0H0V48" fill="none" stroke="#E2E8F0" stroke-opacity="0.06" stroke-width="1"/>
    </pattern>
    <filter id="shadow" x="-20%" y="-20%" width="140%" height="140%">
      <feDropShadow dx="0" dy="26" stdDeviation="24" flood-color="#000000" flood-opacity="0.38"/>
    </filter>
  </defs>
  <rect width="960" height="1280" fill="url(#bg)"/>
  <rect width="960" height="1280" fill="url(#grid)" opacity="0.85"/>
  <path d="M-80 1100C128 934 302 1008 520 842C706 700 778 492 1052 488V1360H-80Z" fill="#34D399" opacity="0.12"/>
  <path d="M544 -80L1040 132V1280H826L408 324Z" fill="#60A5FA" opacity="0.12"/>
  <path d="M-110 438L1030 214V342L-110 566Z" fill="url(#aqua)" opacity="0.17"/>
  <rect x="54" y="54" width="852" height="1172" rx="38" fill="none" stroke="#FFFFFF" stroke-opacity="0.11"/>
  <g font-family="Inter, ui-sans-serif, system-ui, -apple-system, BlinkMacSystemFont, Arial, sans-serif">
    <rect x="96" y="100" width="284" height="44" rx="22" fill="#FFFFFF" fill-opacity="0.11" stroke="#FFFFFF" stroke-opacity="0.16"/>
    <circle cx="121" cy="122" r="7" fill="#34D399"/>
    <text x="142" y="130" fill="#DDF7EE" font-size="22" font-weight="800">Database Internal</text>
    <text x="96" y="248" fill="#FFFFFF" font-size="78" font-weight="880">SQL</text>
    <text x="96" y="334" fill="#FFFFFF" font-size="78" font-weight="880">Execution</text>
    <text x="96" y="420" fill="#FFFFFF" font-size="78" font-weight="880">Pipeline</text>
    <path d="M100 500H448" stroke="#34D399" stroke-width="10" stroke-linecap="round"/>
    <path d="M474 500H586" stroke="#60A5FA" stroke-width="10" stroke-linecap="round" opacity="0.78"/>
    <text x="96" y="570" fill="#CBD5E1" font-size="30" font-weight="650">Parser, Optimizer, Plan, Engine</text>
  </g>
  <g filter="url(#shadow)" font-family="Inter, ui-sans-serif, system-ui, -apple-system, BlinkMacSystemFont, Arial, sans-serif">
    <rect x="140" y="680" width="680" height="350" rx="30" fill="#07111F" fill-opacity="0.84" stroke="#FFFFFF" stroke-opacity="0.14"/>
    <path d="M236 788H724" stroke="#E2E8F0" stroke-opacity="0.26" stroke-width="8" stroke-linecap="round"/>
    <path d="M236 882H724" stroke="#E2E8F0" stroke-opacity="0.26" stroke-width="8" stroke-linecap="round"/>
    <rect x="178" y="742" width="118" height="84" rx="18" fill="#34D399"/>
    <rect x="340" y="742" width="146" height="84" rx="18" fill="#E2E8F0"/>
    <rect x="530" y="742" width="118" height="84" rx="18" fill="#60A5FA"/>
    <rect x="692" y="742" width="86" height="84" rx="18" fill="#A78BFA"/>
    <text x="237" y="792" fill="#06111F" font-size="20" font-weight="850" text-anchor="middle">Parser</text>
    <text x="413" y="792" fill="#06111F" font-size="20" font-weight="850" text-anchor="middle">Optimizer</text>
    <text x="589" y="792" fill="#06111F" font-size="20" font-weight="850" text-anchor="middle">Plan</text>
    <text x="735" y="792" fill="#06111F" font-size="20" font-weight="850" text-anchor="middle">IO</text>
    <path d="M296 784H340M486 784H530M648 784H692" stroke="#F8FAFC" stroke-width="8" stroke-linecap="round" opacity="0.8"/>
    <path d="M235 826C235 868 268 868 268 910M413 826C413 870 396 870 396 910M589 826C589 870 602 870 602 910M735 826C735 870 706 870 706 910" fill="none" stroke="url(#heat)" stroke-width="5" stroke-linecap="round"/>
    <rect x="200" y="910" width="130" height="52" rx="16" fill="#FFFFFF" fill-opacity="0.12" stroke="#FFFFFF" stroke-opacity="0.13"/>
    <rect x="364" y="910" width="130" height="52" rx="16" fill="#FFFFFF" fill-opacity="0.12" stroke="#FFFFFF" stroke-opacity="0.13"/>
    <rect x="528" y="910" width="130" height="52" rx="16" fill="#FFFFFF" fill-opacity="0.12" stroke="#FFFFFF" stroke-opacity="0.13"/>
    <rect x="692" y="910" width="86" height="52" rx="16" fill="#FFFFFF" fill-opacity="0.12" stroke="#FFFFFF" stroke-opacity="0.13"/>
    <text x="265" y="944" fill="#E2E8F0" font-size="17" font-weight="760" text-anchor="middle">View</text>
    <text x="429" y="944" fill="#E2E8F0" font-size="17" font-weight="760" text-anchor="middle">CTE</text>
    <text x="593" y="944" fill="#E2E8F0" font-size="17" font-weight="760" text-anchor="middle">EXPLAIN</text>
    <text x="735" y="944" fill="#E2E8F0" font-size="17" font-weight="760" text-anchor="middle">Disk</text>
  </g>
  <g font-family="Inter, ui-sans-serif, system-ui, -apple-system, BlinkMacSystemFont, Arial, sans-serif">
    <text x="96" y="1132" fill="#94A3B8" font-size="22" font-weight="650">Tech Note Books</text>
    <text x="96" y="1172" fill="#E2E8F0" font-size="26" font-weight="760">Understand the engine behind SQL.</text>
  </g>
</svg>
